<?xml version="1.0" encoding="UTF-8" standalone="no"?>
<!-- Created with Inkscape (http://www.inkscape.org/) -->

<svg
   xmlns:dc="http://purl.org/dc/elements/1.1/"
   xmlns:cc="http://creativecommons.org/ns#"
   xmlns:rdf="http://www.w3.org/1999/02/22-rdf-syntax-ns#"
   xmlns:svg="http://www.w3.org/2000/svg"
   xmlns="http://www.w3.org/2000/svg"
   xmlns:sodipodi="http://sodipodi.sourceforge.net/DTD/sodipodi-0.dtd"
   xmlns:inkscape="http://www.inkscape.org/namespaces/inkscape"
   width="383.68964mm"
   height="125.28436mm"
   viewBox="0 0 383.68964 125.28436"
   version="1.1"
   id="svg8"
   sodipodi:docname="header.svg"
   inkscape:version="0.92.4 (5da689c313, 2019-01-14)">
  <defs
     id="defs2" />
  <sodipodi:namedview
     id="base"
     pagecolor="#ffffff"
     bordercolor="#666666"
     borderopacity="1.0"
     inkscape:pageopacity="0.0"
     inkscape:pageshadow="2"
     inkscape:zoom="3.959798"
     inkscape:cx="298.70125"
     inkscape:cy="350.96154"
     inkscape:document-units="mm"
     inkscape:current-layer="layer2"
     showgrid="false"
     inkscape:window-width="1920"
     inkscape:window-height="1001"
     inkscape:window-x="-9"
     inkscape:window-y="-9"
     inkscape:window-maximized="1"
     objecttolerance="10"
     inkscape:pagecheckerboard="true"
     units="mm"
     inkscape:snap-path-mask="false" />
  <metadata
     id="metadata5">
    <rdf:RDF>
      <cc:Work
         rdf:about="">
        <dc:format>image/svg+xml</dc:format>
        <dc:type
           rdf:resource="http://purl.org/dc/dcmitype/StillImage" />
        <dc:title />
      </cc:Work>
    </rdf:RDF>
  </metadata>
  <g
     inkscape:label="Capa 1"
     inkscape:groupmode="layer"
     id="layer1"
     transform="translate(100.20185,55.797274)">
    <g
       id="g6053"
       transform="translate(-6.7129939,-78.683226)">
      <path
         style="fill:#080303;stroke-width:0.35277778"
         d="m -37.700383,147.64795 c -0.238435,-0.2873 -0.883937,-3.463 -1.434451,-7.05711 -0.550509,-3.59412 -1.092171,-6.68239 -1.203695,-6.86284 -0.327543,-0.52998 -3.866159,-1.43269 -5.616095,-1.43269 h -1.613613 l -4.312196,5.02708 c -2.371708,2.7649 -4.562729,5.02708 -4.868937,5.02708 -0.673911,0 -12.350213,-7.28411 -12.352367,-7.70586 -8.46e-4,-0.16365 1.030356,-2.69713 2.291537,-5.62995 2.809635,-6.53371 2.917324,-7.60725 0.955264,-9.52315 -1.916334,-1.87125 -2.999651,-1.77807 -9.421931,0.81035 -2.888473,1.16417 -5.419497,2.11349 -5.624496,2.10961 -0.368993,-0.007 -7.60467,-12.02078 -7.60467,-12.62644 0,-0.17295 2.2225,-2.10226 4.938889,-4.28735 l 4.938888,-3.9729 v -1.671316 c 0,-2.264671 -0.600301,-3.85728 -1.534557,-4.071197 -0.417174,-0.09552 -3.347735,-0.559304 -6.512358,-1.030623 -3.164622,-0.471321 -5.982435,-1.046649 -6.261805,-1.278505 -0.410861,-0.340985 -0.506914,-1.744994 -0.502544,-7.345723 0.003,-3.808292 0.143278,-7.14182 0.311794,-7.407839 0.198115,-0.312748 2.577871,-0.830609 6.734025,-1.4654 3.535199,-0.539951 6.552316,-1.116048 6.704704,-1.280217 0.427626,-0.460682 1.413519,-4.164736 1.413519,-5.310664 0,-1.198689 -0.676007,-1.886451 -5.997222,-6.101496 -2.037292,-1.613779 -3.840442,-3.052911 -4.007,-3.198072 -0.329871,-0.287486 6.758614,-12.663277 7.395894,-12.912494 0.214656,-0.08394 2.796537,0.808106 5.737513,1.982333 6.617864,2.642278 7.780381,2.738058 9.675608,0.79717 1.83722,-1.881484 1.734301,-2.727146 -1.145815,-9.415126 -1.335287,-3.1007 -2.358892,-5.749126 -2.274675,-5.885391 0.228206,-0.369246 11.996362,-7.703361 12.36064,-7.703361 0.172336,0 2.356933,2.38125 4.85466,5.291667 l 4.541326,5.291667 h 1.749545 c 1.717414,0 5.405045,-0.871083 5.69837,-1.346054 0.08201,-0.132795 0.592613,-3.238089 1.134674,-6.900652 0.58782,-3.971731 1.181114,-6.854754 1.47011,-7.14375 0.722665,-0.722665 14.276327,-0.704494 14.877559,0.01995 0.230279,0.277471 0.882763,3.543845 1.449966,7.25861 0.567203,3.714765 1.106368,6.875619 1.198146,7.02412 0.308325,0.49888 4.658575,1.490746 6.03891,1.376886 1.278276,-0.105442 1.650016,-0.442876 5.7595101,-5.227995 2.4161679,-2.813403 4.5008305,-5.16035 4.6325789,-5.215438 0.2205496,-0.09222 11.8084704,7.036099 12.4410926,7.653142 C 9.4693039,36.457626 9.1707411,37.557848 8.65244,38.75295 L 7.7100717,40.925859 H -11.978551 c -10.828739,0 -19.770132,0.131887 -19.869756,0.293082 -0.09963,0.161195 -0.524736,2.344007 -0.944697,4.850694 -0.419961,2.506688 -0.796928,4.596617 -0.837703,4.644287 -0.04077,0.04767 -1.849465,0.479341 -4.019313,0.95927 -4.724633,1.044999 -8.075789,2.444747 -11.874069,4.959689 -7.8498,5.19756 -13.084648,13.26497 -14.661999,22.595558 -0.627751,3.713368 -0.255368,12.298875 0.686023,15.81675 2.190238,8.184651 8.115825,15.855921 15.612279,20.211651 1.566919,0.91045 2.926761,1.85814 3.021869,2.10599 0.09511,0.24786 -0.23938,2.90207 -0.743316,5.89826 -0.503936,2.99619 -0.916245,5.85773 -0.916245,6.35897 v 0.91136 H -19.709919 7.10564 l 0.8774959,1.98417 c 0.4826211,1.0913 0.8774959,2.18113 0.8774959,2.42186 0,0.59542 -11.8955572,8.05462 -12.4846219,7.82858 -0.2579935,-0.099 -2.4360576,-2.49033 -4.8401464,-5.31405 -4.2155145,-4.95134 -4.4194695,-5.13445 -5.7312555,-5.14536 -1.402221,-0.0117 -5.500575,0.9144 -5.947209,1.34384 -0.138515,0.13318 -0.720993,3.31827 -1.294398,7.07797 -0.658866,4.32003 -1.215344,6.94536 -1.512045,7.13345 -0.258219,0.16369 -3.585365,0.30005 -7.393657,0.30303 -5.689057,0.004 -7.001493,-0.0878 -7.357682,-0.51696 z m -0.827743,-23.02556 c -0.087,-0.14552 2.693133,-17.48896 6.178066,-38.540974 4.883761,-29.502111 6.467211,-38.377476 6.907562,-38.717362 0.654826,-0.50543 9.829098,-0.626016 10.596442,-0.139279 0.365404,0.231781 -0.07487,3.438524 -2.166725,15.781404 -1.823498,10.759447 -2.516026,15.625195 -2.267476,15.931487 0.41427,0.510519 7.201736,0.621361 7.97657,0.13026 0.310113,-0.196554 1.3680792,-5.615676 3.0699568,-15.724954 1.4282278,-8.48378 2.7825452,-15.648889 3.0096,-15.92247 0.5609837,-0.675944 10.2968777,-0.726809 10.804539,-0.05645 0.2198017,0.290244 -1.8098946,13.343273 -5.93811775,38.188195 -3.44963395,20.760973 -6.36162035,38.104413 -6.47108025,38.540973 -0.1956329,0.78023 -0.2916732,0.79375 -5.6395368,0.79375 -2.992283,0 -5.531888,-0.14785 -5.64357,-0.32855 -0.111679,-0.1807 1.004965,-7.56837 2.481432,-16.41704 1.476467,-8.848664 2.59533,-16.320818 2.48636,-16.60478 -0.15797,-0.411667 -1.017722,-0.516297 -4.242364,-0.516297 -3.542725,0 -4.068248,0.07656 -4.237832,0.617361 -0.106471,0.339549 -1.394156,7.827261 -2.861518,16.639356 -1.467358,8.8121 -2.749687,16.15429 -2.849615,16.31598 -0.225813,0.36537 -10.974955,0.3936 -11.192693,0.0294 z m 40.241981,0.044 C 1.5579767,124.40957 8.0915692,83.89376 10.183206,72.146693 l 0.628142,-3.527777 5.436133,-0.09772 c 3.386596,-0.06087 5.519152,0.03661 5.656326,0.258568 0.121108,0.195958 -1.412124,10.082428 -3.407181,21.969939 -1.995057,11.887517 -3.629939,21.812097 -3.633075,22.054627 -0.0078,0.60621 2.875467,0.5764 4.327162,-0.0447 3.806804,-1.62882 5.05334,-5.5381 8.506795,-26.678178 2.678363,-16.395418 2.766839,-17.105574 2.628755,-21.099417 -0.207599,-6.004472 -0.81939,-6.368052 -10.764707,-6.39734 -4.895169,-0.01443 -6.800165,-0.135685 -6.901381,-0.439331 -0.23109,-0.693279 1.495852,-10.2725 1.950741,-10.82061 0.353029,-0.425371 1.575411,-0.472341 7.497798,-0.288104 4.080136,0.126927 8.152091,0.446487 9.617643,0.754775 6.149322,1.29355 9.310631,4.440653 10.327742,10.281337 0.852823,4.897279 -0.195262,15.598006 -3.175233,32.418412 -4.307469,24.313466 -7.739852,30.570466 -18.322201,33.400136 -2.205196,0.58967 -4.162676,0.75519 -10.6778566,0.9029 -4.4031781,0.0998 -8.0615789,0.0426 -8.1649534,-0.12774 z"
         id="path6055"
         inkscape:connector-curvature="0" />
    </g>
  </g>
  <g
     inkscape:groupmode="layer"
     id="layer2"
     inkscape:label="Capa 2"
     transform="translate(100.20185,55.797274)">
    <path
       style="fill:#080303;stroke:#ffffff;stroke-width:1.25300002;stroke-miterlimit:4;stroke-dasharray:none"
       d="m -44.413374,68.96468 c -0.23844,-0.2873 -0.88394,-3.463 -1.43445,-7.05711 -0.55051,-3.59412 -1.09217,-6.68239 -1.2037,-6.86284 -0.32754,-0.52998 -3.86616,-1.43269 -5.61609,-1.43269 h -1.61362 l -4.31219,5.02708 c -2.37171,2.7649 -4.562728,5.02708 -4.868938,5.02708 -0.67391,0 -12.35021,-7.28411 -12.35237,-7.70586 -8.4e-4,-0.16365 1.03036,-2.69713 2.29154,-5.62995 2.80964,-6.53371 2.91732,-7.60725 0.95526,-9.52315 -1.91633,-1.87125 -2.99965,-1.77807 -9.42193,0.81035 -2.88847,1.16417 -5.41949,2.11349 -5.62449,2.10961 -0.369,-0.007 -7.60467,-12.02078 -7.60467,-12.62644 0,-0.17295 2.2225,-2.10226 4.93889,-4.28735 l 4.93888,-3.9729 v -1.671306 c 0,-2.26468 -0.6003,-3.85728 -1.53455,-4.0712 -0.41718,-0.0955 -3.34774,-0.55931 -6.51236,-1.03062 -3.16462,-0.47133 -5.98244,-1.04665 -6.26181,-1.27851 -0.410858,-0.34098 -0.506908,-1.74499 -0.502538,-7.34572 0.003,-3.80829 0.14328,-7.14182 0.311788,-7.40784 0.19812,-0.31275 2.57788,-0.83061 6.73403,-1.4654 3.5352,-0.53995 6.55232,-1.11605 6.7047,-1.28022 0.42763,-0.46068 1.41352,-4.16473 1.41352,-5.31066 0,-1.19869 -0.676,-1.88645 -5.99722,-6.1015 -2.03729,-1.61378 -3.84044,-3.05291 -4.007,-3.19807 -0.32987,-0.28749 6.75861,-12.66328 7.39589,-12.91249 0.21466,-0.0839 2.79654,0.8081 5.73752,1.98233 6.61786,2.64228 7.78038,2.73806 9.67561,0.79717 1.83722,-1.88149 1.7343,-2.72715 -1.14582,-9.41513 -1.33529,-3.1007 -2.35889,-5.74912 -2.27467,-5.88539 0.2282,-0.36924 11.99636,-7.70336 12.36064,-7.70336 0.17233,0 2.356928,2.38125 4.854658,5.29167 l 4.54132,5.29166 h 1.74955 c 1.71741,0 5.40504,-0.87108 5.69837,-1.34605 0.082,-0.13279 0.59261,-3.23809 1.13467,-6.90065 0.58782,-3.97173 1.18111,-6.85476 1.47011,-7.14375 0.72267,-0.72267 14.27633,-0.7045 14.87756,0.02 0.23028,0.27747 0.88276,3.54384 1.44997,7.25861 0.5672,3.71476 1.10636,6.87562 1.19814,7.02412 0.30833,0.49888 4.65858,1.49074 6.03891,1.37688 1.27828,-0.10544 1.65002,-0.44287 5.75951,-5.22799 2.41617,-2.8134 4.5008301,-5.16035 4.6325801,-5.21544 0.22055,-0.0922 11.80847,7.0361 12.44109,7.65314 0.15339,0.14962 -0.14517,1.24984 -0.66347,2.44494 l -1.34327429,3.108353 -19.07579981,1.845992 c -10.778389,1.04304 -16.58301,1.72758 -16.58301,1.72758 0,0 -0.151922,-0.770422 -0.571887,1.736268 -0.41996,2.50668 -3.933413,3.628742 -3.974193,3.676412 -0.0408,0.0477 -2.584451,0.345705 -4.754301,0.825635 -4.72463,1.045 -8.07579,2.44475 -11.87407,4.95969 -7.849798,5.19756 -13.084648,13.26497 -14.661998,22.59556 -0.62775,3.71337 -0.25537,12.29888 0.68603,15.81675 2.19023,8.184646 8.11582,15.855916 15.612268,20.211646 1.56692,0.91045 3.728579,2.158818 3.823679,2.406668 0.0951,0.24786 2.341408,1.413757 1.837478,4.409947 0,0 1.99877,-0.884465 1.714717,-0.471481 l -4.710625,6.848782 19.290274,-2.354371 32.63700281,3.29914 1.27840429,3.120065 c 0.48262,1.0913 0.87749,2.18113 0.87749,2.42186 0,0.59542 -11.89556,8.05462 -12.4846201,7.82858 -0.25799,-0.099 -2.43606,-2.49033 -4.84015,-5.31405 -4.21551,-4.95134 -4.41947,-5.13445 -5.73125,-5.14536 -1.40222,-0.0117 -5.50058,0.9144 -5.94721,1.34384 -0.13852,0.13318 -0.72099,3.31827 -1.2944,7.07797 -0.65886,4.32003 -1.21534,6.94536 -1.51204,7.13345 -0.25822,0.16369 -3.58537,0.30005 -7.39366,0.30303 -5.68906,0.004 -7.00149,-0.0878 -7.35768,-0.51696 z"
       id="path6059"
       inkscape:connector-curvature="0"
       sodipodi:nodetypes="cscscsscscccsccscccccscssccscscsscscsccccccccccscscsssccccsccccsccccccccc" />
    <path
       transform="translate(-6.7129934,-78.683226)"
       style="fill:#d82727;stroke-width:0.35277778"
       d="m 7.10564,130.53142 h -26.815559 -26.815559 v -0.91136 c 0,-0.50124 0.412309,-3.36278 0.916245,-6.35897 6.473419,-39.435155 -1.94879,11.32124 6.473419,-39.435155 6.324046,-37.659314 4.727756,-28.149594 6.324046,-37.659314 0.424303,-2.550359 0.855415,-4.772859 0.958028,-4.938889 0.102612,-0.16603 9.05202,-0.301873 19.887575,-0.301873 L 8.6621131,40.466237 c 22.2152379,0.459622 0,0 22.2152379,0.459622 13.039686,0.269784 22.120786,0.132553 22.239549,0.32472 0.11038,0.178596 -1.381993,9.743283 -3.31638,21.25486 -1.934386,11.51158 -5.270627,31.384615 -7.413871,44.162301 -2.143242,12.77769 -3.984618,23.37425 -4.091951,23.54792 -0.109883,0.17779 -6.728079,0.31576 -15.146566,0.31576 -16.0424975,1e-5 0,0 -16.042492,0 z M -27.335433,124.593 c 0.09993,-0.16169 1.382257,-7.50388 2.849615,-16.31598 1.467362,-8.812093 2.755047,-16.299805 2.861518,-16.639354 0.169584,-0.540805 0.695107,-0.617361 4.237832,-0.617361 3.224642,0 4.084394,0.10463 4.242364,0.516297 0.10897,0.283962 -1.009893,7.756116 -2.48636,16.604778 -1.476467,8.84867 -2.593111,16.23634 -2.481432,16.41704 0.111682,0.1807 2.651287,0.32855 5.64357,0.32855 5.3478636,0 5.4439039,-0.0135 5.6395368,-0.79375 0.1094599,-0.43656 3.0214463,-17.78 6.47108025,-38.540971 C 3.7705142,60.707327 5.8002105,47.654298 5.5804088,47.364054 c -0.5076613,-0.670361 -10.2435553,-0.619496 -10.804539,0.05645 -0.2270548,0.273581 -1.5813722,7.43869 -3.0096,15.92247 -1.7018776,10.109278 -2.7598438,15.5284 -3.0699568,15.724954 -0.774834,0.491101 -7.5623,0.380259 -7.97657,-0.13026 -0.24855,-0.306292 0.443978,-5.17204 2.267476,-15.931487 2.091855,-12.34288 2.532129,-15.549623 2.166725,-15.781404 -0.767344,-0.486737 -9.941616,-0.366151 -10.596442,0.139279 -0.440351,0.339886 -2.023801,9.215251 -6.907562,38.717362 -3.484933,21.052012 -6.265065,38.395452 -6.178066,38.540972 0.217738,0.36421 10.96688,0.33598 11.192693,-0.0294 z m 47.892098,-0.70173 C 31.139014,121.0616 34.571397,114.8046 38.878866,90.491138 41.858837,73.670732 42.906922,62.970005 42.054099,58.072726 41.036988,52.232042 37.875679,49.084939 31.726357,47.791389 30.260805,47.483101 26.18885,47.163541 22.108714,47.036614 c -5.922387,-0.184237 -7.144769,-0.137267 -7.497798,0.288104 -0.454889,0.54811 -2.181831,10.127331 -1.950741,10.82061 0.101216,0.303646 2.006212,0.424917 6.901381,0.439331 9.945317,0.02928 10.557108,0.392868 10.764707,6.39734 0.138084,3.993843 0.04961,4.703999 -2.628755,21.099417 -3.453455,21.140074 -4.699991,25.049354 -8.506795,26.678174 -1.451695,0.62114 -4.334993,0.65095 -4.327162,0.0447 0.0032,-0.24253 1.638018,-10.16711 3.633075,-22.054623 1.995057,-11.887511 3.528289,-21.773981 3.407181,-21.969939 -0.137174,-0.221954 -2.26973,-0.31944 -5.656326,-0.258568 l -5.436133,0.09772 -0.628142,3.527777 C 8.0915692,83.89376 1.5579767,124.40957 1.713855,124.66643 c 0.1033745,0.17034 3.7617753,0.22757 8.1649534,0.12774 6.5151806,-0.14771 8.4726606,-0.31323 10.6778566,-0.9029 z m 206.375575,3.65012 c -4.76255,-1.07886 -6.96436,-2.90367 -7.34103,-6.08409 -0.4206,-3.55128 1.81838,-7.89625 4.88654,-9.48286 1.24922,-0.646 1.23938,-0.99601 -0.0699,-2.4872 -0.96831,-1.10284 -1.05833,-1.4235 -1.05833,-3.76967 0,-3.16343 0.94295,-5.27214 3.47103,-7.762208 l 1.72987,-1.70386 -0.66017,-1.737437 c -1.38597,-3.647568 -0.55239,-11.054098 1.71336,-15.223568 3.06264,-5.635915 8.37714,-8.38102 16.21694,-8.376557 3.68763,0.0021 5.39521,0.330341 7.75641,1.490983 l 1.47606,0.725558 1.13415,-0.954324 c 1.60362,-1.349364 5.18121,-3.089405 6.08668,-2.960405 0.58096,0.08276 0.91225,0.571948 1.38765,2.048997 0.34347,1.067153 0.72091,2.535368 0.83877,3.262701 l 0.21428,1.322426 -2.07349,0.879295 c -1.14043,0.483616 -2.60378,1.158526 -3.25191,1.4998 l -1.17838,0.6205 -0.11292,3.704167 c -0.28688,9.413307 -5.09863,16.053443 -12.79868,17.662082 -1.30257,0.27212 -3.79121,0.35604 -7.02148,0.23677 -5.09828,-0.18825 -5.40317,-0.12321 -5.40317,1.15264 0,0.5666 2.32865,1.04411 8.64305,1.77233 3.4925,0.40278 7.10899,0.97659 8.03665,1.27513 3.65995,1.17786 5.17238,3.53713 5.18476,8.08771 0.0205,7.53605 -3.68657,12.34922 -11.12395,14.44301 -2.95348,0.83147 -13.58561,1.05968 -16.68279,0.35808 z m 15.27168,-1.78008 c 5.70763,-1.57719 9.08151,-4.66542 10.56405,-9.66962 1.45186,-4.9007 -0.26759,-8.62835 -4.62486,-10.02633 -0.92766,-0.29762 -3.90915,-0.79065 -6.62554,-1.09562 -6.51958,-0.73195 -9.41394,-1.21726 -9.95939,-1.66995 -0.76914,-0.63833 -0.54043,-3.16318 0.39209,-4.328678 l 0.83615,-1.045027 2.60168,0.608577 c 8.34162,1.951238 15.53537,-0.992141 18.94811,-7.752757 2.0139,-3.989483 2.46359,-6.601884 2.08294,-12.100504 -0.0846,-1.221969 -0.0741,-1.23105 2.9137,-2.511337 3.19087,-1.367314 3.53314,-1.800768 2.84695,-3.605519 -0.20951,-0.551071 -0.62981,-0.947018 -1.00527,-0.947018 -0.80857,0 -3.50316,1.713547 -4.6372,2.948905 -1.00788,1.097932 -2.14725,1.196329 -2.99579,0.258716 -1.90296,-2.102742 -7.3705,-3.019548 -11.94208,-2.002465 -6.28372,1.397995 -10.54863,5.713864 -12.26043,12.40693 -1.00676,3.936404 -0.92197,5.954854 0.35602,8.475006 0.57963,1.143004 1.05588,2.380481 1.05833,2.749953 0.002,0.375567 -0.91532,1.504121 -2.08159,2.559537 -2.26713,2.051631 -3.91116,4.854561 -3.91116,6.668171 0,1.34289 1.01327,2.71692 2.86617,3.8866 0.75194,0.47468 1.36716,1.1031 1.36716,1.39648 0,0.29338 -0.74454,0.96608 -1.65453,1.49488 -2.43139,1.41289 -4.71312,3.58916 -5.44653,5.19479 -1.8706,4.09525 0.40577,7.10625 6.40162,8.46755 2.95947,0.67193 10.91853,0.4652 13.9094,-0.36127 z m -11.08604,-6.54466 c -1.63623,-0.681 -2.12406,-1.39739 -2.12159,-3.1156 0.002,-1.78223 0.6695,-3.05463 2.25474,-4.30158 l 1.00693,-0.79205 5.73147,0.59249 c 7.85454,0.81195 8.64342,1.1548 8.64342,3.75639 0,1.51099 -0.81196,2.94684 -2.00201,3.5403 -1.23905,0.61791 -12.17499,0.87692 -13.51296,0.32005 z m 12.22677,-1.83272 c 1.94212,-1.04439 1.93897,-2.77699 -0.006,-3.40795 -1.2776,-0.41442 -6.75181,-1.07626 -8.93751,-1.08056 -1.18118,-0.002 -1.69046,0.21541 -2.57661,1.10156 -1.4733,1.47329 -1.35414,2.71378 0.34462,3.58767 1.68804,0.86837 9.44674,0.72902 11.17569,-0.20072 z m -4.04164,-24.090572 c -0.68811,-0.481975 -0.78311,-0.859673 -0.77641,-3.086806 0.009,-2.956415 1.08303,-8.179311 2.12467,-10.331062 0.5039,-1.04092 1.05928,-1.614928 1.81865,-1.879646 1.56947,-0.547116 3.1734,-0.470037 4.12768,0.198364 0.80082,0.56092 0.82157,0.699184 0.64838,4.321528 -0.22331,4.670982 -1.5051,9.329173 -2.8964,10.525919 -1.12442,0.967179 -3.83226,1.102236 -5.04657,0.251703 z m 4.08995,-2.094293 c 1.24079,-1.577408 2.86042,-8.709273 2.3971,-10.555316 -0.33047,-1.316705 -1.77136,-1.58357 -2.8877,-0.534829 -1.5459,1.452305 -3.46366,9.375951 -2.68361,11.087975 0.55165,1.210723 2.22266,1.211866 3.17421,0.0021 z M 62.916823,114.10947 c -2.664506,-0.71735 -3.692712,-1.3322 -5.320701,-3.18169 -1.674883,-1.90277 -2.955385,-5.0206 -2.803874,-6.82701 0.105488,-1.2577 0.121028,-1.26861 4.162827,-2.925 2.23132,-0.91443 4.333177,-1.668489 4.670792,-1.675696 0.417477,-0.0089 0.938915,0.703806 1.629985,2.227936 1.105891,2.43899 2.139435,3.40341 3.647363,3.40341 1.203056,0 2.220221,-1.36574 1.860729,-2.49839 -0.134246,-0.42297 -2.177132,-2.811194 -4.539749,-5.307161 -2.362619,-2.495966 -4.845632,-5.445964 -5.517811,-6.555549 -1.18044,-1.948586 -1.221983,-2.138239 -1.217461,-5.558025 0.0041,-3.126334 0.119687,-3.788262 0.987605,-5.657268 2.516657,-5.419475 8.071192,-8.643056 14.892803,-8.643056 3.613902,0 5.964001,0.694295 7.86873,2.324672 2.21459,1.895605 3.350002,4.349806 3.383156,7.312716 l 0.02692,2.405447 -3.704167,1.573252 c -4.610791,1.958319 -5.159248,1.927514 -6.01588,-0.337901 -1.112816,-2.942915 -2.647721,-4.167594 -4.061943,-3.240959 -1.779972,1.166283 -1.28657,2.131727 4.060348,7.944901 2.705248,2.941151 5.28151,6.091181 5.725026,7.000071 1.58423,3.24654 1.167307,8.72187 -0.914756,12.01321 -1.908658,3.01722 -5.724768,5.52854 -9.658075,6.35583 -2.523673,0.53081 -6.89144,0.45751 -9.161861,-0.15374 z m 7.75075,-1.25737 c 8.159407,-1.71617 13.513646,-9.59165 10.575967,-15.556065 -0.450162,-0.91397 -2.942036,-3.96458 -5.5375,-6.77913 -2.59546,-2.814549 -4.886209,-5.429754 -5.090548,-5.811566 -0.204339,-0.381815 -0.371528,-1.426235 -0.371528,-2.320932 0,-2.36286 1.079133,-3.358547 3.640025,-3.358547 2.264851,0 3.366808,0.865378 4.337057,3.405936 0.707344,1.852154 0.947846,1.852545 4.722918,0.0077 2.113996,-1.033089 2.284451,-1.200651 2.182865,-2.145863 -0.180252,-1.677166 -1.698939,-4.275547 -3.29988,-5.645891 -7.047423,-6.032334 -20.795731,0.911528 -20.906968,10.559493 -0.03369,2.921617 1.188938,4.852765 6.920427,10.930904 l 4.520223,4.793591 v 2.25062 c 0,2.03442 -0.09319,2.32415 -0.970139,3.01623 -0.804499,0.6349 -1.314221,0.741 -2.985393,0.62141 -2.351458,-0.16827 -3.137873,-0.7408 -4.378818,-3.18791 -0.519794,-1.02501 -1.087173,-1.67643 -1.461178,-1.67759 -0.336278,-0.001 -1.841729,0.49305 -3.345444,1.09799 -1.862173,0.74914 -2.731559,1.28411 -2.726281,1.67759 0.02431,1.81221 2.960497,5.90865 4.985822,6.95598 1.398722,0.72331 4.473163,1.50862 6.013373,1.53601 0.718054,0.0128 2.146804,-0.15372 3.175,-0.36999 z m 23.036113,1.30841 c -2.436425,-0.60212 -3.719206,-1.3378 -5.210073,-2.98801 -1.527143,-1.69037 -2.376251,-4.2879 -2.370483,-7.25164 0.0021,-1.17746 0.872917,-6.498626 1.934729,-11.824819 1.540866,-7.729203 2.170705,-10.185979 3.120213,-12.170834 3.093001,-6.465616 8.548423,-9.283337 17.323288,-8.947457 3.4391,0.131639 4.23569,0.282363 5.96572,1.128787 3.34136,1.634776 4.81299,4.409877 4.81299,9.075991 0,2.564766 -1.62844,11.838514 -2.20757,12.571805 -0.25999,0.329201 -2.34389,0.440972 -8.22175,0.440972 -4.33041,0 -7.94495,0.119063 -8.03231,0.264583 -0.0874,0.145521 -0.5189,2.01827 -0.958994,4.161664 -0.846384,4.122168 -0.765591,5.620078 0.321754,5.965178 1.64585,0.52238 2.68076,-0.95123 3.58154,-5.099758 l 0.57449,-2.645834 5.89171,-0.09676 c 4.99086,-0.08196 5.92297,-0.01528 6.09621,0.436167 0.3052,0.795341 -1.1302,7.037925 -2.0986,9.126815 -1.84328,3.97608 -6.09157,7.12709 -10.78143,7.99671 -2.53599,0.47023 -7.557151,0.39624 -9.741434,-0.14356 z m 8.330324,-1.26756 c 4.42638,-0.82076 8.73767,-3.88121 10.60122,-7.5255 0.82128,-1.60606 2.13271,-6.53371 1.85741,-6.979155 -0.31329,-0.50691 -8.11785,-0.389294 -8.52949,0.128538 -0.19279,0.242535 -0.61657,1.656157 -0.94172,3.141377 -0.3798,1.73483 -0.88691,3.0195 -1.41823,3.5928 -0.94857,1.02353 -3.05902,1.53819 -4.389245,1.07037 -2.027058,-0.71288 -2.168162,-2.90255 -0.633639,-9.833019 l 0.781107,-3.527778 7.981267,-0.09472 c 5.80145,-0.06885 8.07581,-0.213374 8.32743,-0.529167 0.19039,-0.238947 0.79145,-2.796677 1.33569,-5.683853 0.87991,-4.667832 0.94368,-5.469051 0.57564,-7.231945 -0.87833,-4.207125 -3.95691,-6.613521 -8.94335,-6.990644 -5.12542,-0.387636 -10.362499,1.524624 -13.485729,4.924164 -2.626413,2.85877 -3.5649,5.526038 -5.683401,16.152735 -1.061812,5.326193 -1.932439,10.012357 -1.934729,10.413707 -0.01559,2.73286 2.286737,6.53928 4.731823,7.82304 2.551906,1.33985 6.337416,1.78516 9.767946,1.14905 z m -1.33229,-24.541169 c -0.51006,-1.329182 0.7861,-6.858805 1.94244,-8.286835 0.48723,-0.601694 1.11979,-0.834411 2.60225,-0.957347 2.58493,-0.214362 3.45612,0.547134 3.43794,3.005067 -0.0128,1.73422 -0.7443,5.664722 -1.18774,6.38223 -0.1611,0.260664 -1.39931,0.408742 -3.41787,0.408742 -2.54597,0 -3.20669,-0.107971 -3.37702,-0.551857 z m 5.51497,-1.653004 c 0.69557,-1.688154 1.07837,-4.526682 0.70464,-5.224999 -0.47325,-0.884276 -1.90597,-0.883207 -2.79126,0.0021 -0.72325,0.723244 -1.78333,3.813595 -1.78333,5.198745 0,0.746778 0.15407,0.817915 1.77145,0.817915 1.50498,0 1.82065,-0.119404 2.0985,-0.79375 z m 160.25289,27.410693 c -2.6645,-0.71735 -3.6927,-1.3322 -5.3207,-3.18169 -1.67488,-1.90277 -2.95536,-5.0206 -2.80384,-6.82701 0.10548,-1.2577 0.121,-1.26861 4.16281,-2.925 2.23132,-0.91443 4.33317,-1.668489 4.67078,-1.675696 0.41747,-0.0089 0.93892,0.703806 1.63001,2.227936 1.10588,2.43899 2.13942,3.40341 3.64737,3.40341 1.20304,0 2.2202,-1.36574 1.86072,-2.49839 -0.13426,-0.42297 -2.17713,-2.811194 -4.53975,-5.307161 -2.36263,-2.495966 -4.84565,-5.445964 -5.51784,-6.555549 -1.18043,-1.948586 -1.22195,-2.138239 -1.21743,-5.558025 0.004,-3.126334 0.11966,-3.788262 0.9876,-5.657268 2.51665,-5.419475 8.0712,-8.643056 14.8928,-8.643056 3.61389,0 5.96399,0.694295 7.86874,2.324672 2.21456,1.895605 3.34998,4.349806 3.38314,7.312716 l 0.0268,2.405447 -3.70417,1.573252 c -4.6108,1.958319 -5.15923,1.927514 -6.01588,-0.337901 -1.1128,-2.942915 -2.6477,-4.167594 -4.06196,-3.240959 -1.77994,1.166283 -1.28654,2.131727 4.06037,7.944901 2.70524,2.941151 5.28151,6.091181 5.72502,7.000071 1.58422,3.24654 1.16731,8.72187 -0.91475,12.01321 -1.90867,3.01722 -5.72477,5.52854 -9.65807,6.35583 -2.52367,0.53081 -6.89144,0.45751 -9.16189,-0.15374 z m 7.75077,-1.25737 c 8.1594,-1.71617 13.51365,-9.59165 10.57596,-15.556065 -0.45018,-0.91397 -2.94202,-3.96458 -5.53748,-6.77913 -2.59549,-2.814549 -4.88622,-5.429754 -5.09058,-5.811566 -0.20433,-0.381815 -0.37151,-1.426235 -0.37151,-2.320932 0,-2.36286 1.07915,-3.358547 3.64003,-3.358547 2.26483,0 3.36681,0.865378 4.33705,3.405936 0.70735,1.852154 0.94784,1.852545 4.72292,0.0077 2.11398,-1.033089 2.28445,-1.200651 2.18288,-2.145863 -0.18027,-1.677166 -1.69894,-4.275547 -3.29988,-5.645891 -7.04744,-6.032334 -20.79576,0.911528 -20.90699,10.559493 -0.0335,2.921617 1.18893,4.852765 6.92044,10.930904 l 4.52022,4.793611 v 2.25061 c 0,2.03442 -0.0932,2.32415 -0.97014,3.01623 -0.80451,0.6349 -1.31424,0.741 -2.98539,0.62141 -2.35147,-0.16827 -3.13788,-0.7408 -4.37881,-3.18791 -0.51982,-1.02501 -1.0872,-1.67643 -1.46117,-1.67759 -0.33631,-10e-4 -1.84175,0.49306 -3.34547,1.09799 -1.86217,0.74914 -2.73156,1.28411 -2.72626,1.67759 0.0243,1.81221 2.96047,5.90865 4.9858,6.95598 1.39873,0.72331 4.47316,1.50862 6.01338,1.53601 0.71805,0.0128 2.1468,-0.15372 3.175,-0.36998 z m -148.85568,0.80942 c -5.20364,-1.85669 -5.49574,-4.64699 -2.20404,-21.053715 1.16417,-5.802517 2.11667,-10.905582 2.11667,-11.340148 0,-0.677351 -0.21399,-0.8056 -1.49931,-0.898595 -1.3805,-0.09988 -1.50713,-0.192342 -1.598,-1.166813 -0.0543,-0.582083 0.19044,-2.487083 0.54382,-4.233333 l 0.6425,-3.175 1.85366,-0.107192 c 2.25504,-0.130404 2.18266,0.0059 3.40872,-6.419197 1.34949,-7.071936 0.46672,-6.350001 7.76462,-6.350001 5.46115,0 6.21896,0.06962 6.41852,0.589669 0.12445,0.324319 -0.20927,2.824631 -0.7416,5.55625 -1.37372,7.049149 -1.521,6.347216 1.37512,6.554082 2.44185,0.174417 2.47055,0.188217 2.56814,1.234722 0.0543,0.582083 -0.19048,2.487083 -0.54392,4.233333 l -0.6426,3.175001 -2.771,0.176388 c -1.9582,0.124651 -2.85691,0.331608 -3.06386,0.705556 -0.27941,0.504853 -4.19259,19.834463 -4.19071,20.700493 0.002,1.01981 1.12401,1.52451 3.38855,1.52451 1.70948,0 2.33014,0.13344 2.48386,0.53401 0.26552,0.69196 -1.31159,8.89195 -1.85248,9.63166 -0.34275,0.46873 -1.37058,0.58462 -6.00862,0.67746 -4.76645,0.0954 -5.86957,0.0141 -7.44804,-0.54914 z m 11.96824,-1.3946 c 0.43002,-0.43003 1.72625,-6.45924 1.4758,-6.86448 -0.0921,-0.14906 -0.79823,-0.27102 -1.56912,-0.27102 -0.77089,0 -1.95215,-0.23003 -2.62501,-0.51117 -1.19663,-0.49998 -1.2234,-0.55593 -1.22356,-2.55764 -1.7e-4,-2.210047 3.76793,-21.868925 4.33104,-22.595777 0.21347,-0.275541 1.23563,-0.440973 2.72468,-0.440973 1.48046,0 2.51855,-0.167019 2.74079,-0.440972 0.4864,-0.599563 1.24578,-4.418372 1.00393,-5.048613 -0.1421,-0.370308 -0.82112,-0.507637 -2.51,-0.507637 -1.67311,0 -2.36844,-0.138748 -2.50717,-0.500281 -0.10559,-0.275156 0.30565,-2.973889 0.91386,-5.997187 0.6082,-3.023299 1.00771,-5.655674 0.88778,-5.849719 -0.12724,-0.205871 -2.12258,-0.352813 -4.79091,-0.352813 -5.41581,0 -4.81503,-0.620794 -6.14522,6.35 -1.21267,6.354946 -1.21024,6.35 -3.12425,6.35 -0.85352,0 -1.71284,0.198437 -1.9096,0.440972 -0.4773,0.588349 -1.24781,4.41306 -1.01255,5.026145 0.10239,0.266841 0.79035,0.534967 1.52878,0.595831 1.25602,0.103526 1.34893,0.190299 1.44049,1.345385 0.0538,0.679098 -0.93836,6.38718 -2.20486,12.684627 -2.38357,11.851812 -2.63604,14.067222 -1.82226,15.989902 1.19177,2.8157 4.00394,3.86145 9.85923,3.6663 2.29135,-0.0764 4.33351,-0.30626 4.53813,-0.51088 z m 13.07898,1.3946 c -5.20364,-1.85669 -5.49574,-4.64699 -2.20404,-21.053715 1.16417,-5.802517 2.11667,-10.905582 2.11667,-11.340148 0,-0.677351 -0.21399,-0.8056 -1.49931,-0.898595 -1.38049,-0.09988 -1.50712,-0.192342 -1.598,-1.166813 -0.0543,-0.582083 0.19044,-2.487083 0.54382,-4.233333 l 0.6425,-3.175 1.85366,-0.107192 c 2.25504,-0.130404 2.18266,0.0059 3.40872,-6.419197 1.34949,-7.071936 0.46672,-6.350001 7.76462,-6.350001 5.46115,0 6.21896,0.06962 6.41852,0.589669 0.12445,0.324319 -0.20927,2.824631 -0.7416,5.55625 -1.37372,7.049149 -1.52099,6.347216 1.37512,6.554082 2.44185,0.174417 2.47055,0.188217 2.56814,1.234722 0.0543,0.582083 -0.19048,2.487083 -0.54392,4.233333 l -0.6426,3.175001 -2.771,0.176388 c -1.9582,0.124651 -2.8569,0.331608 -3.06386,0.705556 -0.27941,0.504853 -4.19259,19.834463 -4.19071,20.700493 0.002,1.01981 1.12402,1.52451 3.38856,1.52451 1.70947,0 2.33013,0.13344 2.48385,0.53401 0.26553,0.69196 -1.31159,8.89195 -1.85248,9.63166 -0.34275,0.46873 -1.37057,0.58462 -6.00861,0.67746 -4.76645,0.0954 -5.86958,0.0141 -7.44805,-0.54914 z m 11.96824,-1.3946 c 0.43003,-0.43003 1.72626,-6.45924 1.4758,-6.86448 -0.0921,-0.14906 -0.79823,-0.27102 -1.56912,-0.27102 -0.77089,0 -1.95214,-0.23003 -2.62501,-0.51117 -1.19663,-0.49998 -1.2234,-0.55593 -1.22356,-2.55764 -1.7e-4,-2.210047 3.76794,-21.868925 4.33104,-22.595777 0.21347,-0.275541 1.23563,-0.440973 2.72468,-0.440973 1.48047,0 2.51855,-0.167019 2.7408,-0.440972 0.48639,-0.599563 1.24577,-4.418372 1.00392,-5.048613 -0.1421,-0.370308 -0.82112,-0.507637 -2.51,-0.507637 -1.6731,0 -2.36844,-0.138748 -2.50717,-0.500281 -0.10559,-0.275156 0.30565,-2.973889 0.91386,-5.997187 0.6082,-3.023299 1.00771,-5.655674 0.88778,-5.849719 -0.12724,-0.205871 -2.12258,-0.352813 -4.79091,-0.352813 -5.41581,0 -4.81503,-0.620794 -6.14522,6.35 -1.21267,6.354946 -1.21024,6.35 -3.12424,6.35 -0.85353,0 -1.71285,0.198437 -1.90961,0.440972 -0.4773,0.588349 -1.24781,4.41306 -1.01255,5.026145 0.1024,0.266841 0.79035,0.534967 1.52879,0.595831 1.25602,0.103526 1.34892,0.190299 1.44048,1.345385 0.0538,0.679098 -0.93836,6.38718 -2.20486,12.684627 -2.38357,11.851812 -2.63604,14.067222 -1.82226,15.989902 1.19177,2.8157 4.00394,3.86145 9.85923,3.6663 2.29135,-0.0764 4.33351,-0.30626 4.53813,-0.51088 z m 6.17911,1.45663 c -0.51327,-0.51327 -0.09,-3.00922 3.75996,-22.174078 l 3.96867,-19.755556 h 6.33291 6.3329 l 0.0791,1.234722 c 0.0435,0.679097 -1.71027,10.124722 -3.89734,20.990278 l -3.9765,19.755554 -6.17835,0.0961 c -3.39809,0.0528 -6.28772,-0.0133 -6.4214,-0.14699 z m 10.96873,-1.62477 c 0.48648,-0.59249 7.94034,-37.942379 7.6981,-38.573664 -0.25888,-0.674627 -8.75783,-0.725311 -9.30779,-0.05551 -0.48647,0.592483 -7.94034,37.942384 -7.69809,38.573664 0.25888,0.67463 8.75783,0.72531 9.30778,0.0555 z m 7.29486,1.41111 c -0.0926,-0.24254 1.69827,-9.72785 3.97982,-21.078474 l 4.14826,-20.6375 6.26974,-0.09637 c 5.36318,-0.08243 6.29409,-0.01866 6.43819,0.440973 0.0926,0.295539 0.23821,0.763393 0.32348,1.039678 0.12074,0.391269 0.72523,0.215773 2.73402,-0.79375 2.46541,-1.238998 2.73709,-1.296088 6.16802,-1.296088 4.11738,0 5.07509,0.432534 6.26418,2.829109 1.31111,2.642506 0.93202,5.983926 -2.70073,23.805614 l -3.2719,16.051388 -6.26975,0.0964 c -5.46014,0.0839 -6.2975,0.024 -6.48475,-0.46395 -0.11826,-0.30818 1.17627,-7.52464 2.87672,-16.036586 1.70045,-8.511946 2.99639,-15.724731 2.87985,-16.028409 -0.50659,-1.320158 -3.56365,-0.308487 -4.08519,1.351911 -0.1891,0.602005 -1.647,7.682679 -3.2398,15.734832 -1.59278,8.052152 -3.0496,14.838712 -3.23737,15.081252 -0.24991,0.32282 -1.98694,0.44097 -6.48287,0.44097 -4.58817,0 -6.18409,-0.11153 -6.30992,-0.44097 z m 11.38228,-1.41111 c 0.18808,-0.24254 1.74285,-7.48662 3.45504,-16.097972 l 3.11306,-15.656998 1.53288,-0.678064 c 0.99164,-0.438651 2.11846,-0.640186 3.19133,-0.570784 1.37874,0.08919 1.74831,0.26802 2.19124,1.060295 0.4977,0.890249 0.33045,1.96977 -2.53985,16.392914 -1.68995,8.491949 -2.94357,15.568969 -2.78581,15.726719 0.15775,0.15776 2.33769,0.2422 4.84431,0.18765 l 4.55748,-0.0992 3.24711,-16.051388 c 1.7859,-8.828264 3.25409,-16.924514 3.26264,-17.991667 0.0515,-6.421812 -5.43684,-7.768005 -12.6014,-3.090926 -3.26166,2.129232 -3.78612,2.091898 -3.78612,-0.269523 v -1.754829 h -4.7625 -4.7625 l -3.7761,18.697222 c -2.07686,10.283471 -3.78342,19.133781 -3.79237,19.667361 l -0.0163,0.97014 h 4.54291 c 3.21676,0 4.64274,-0.12873 4.8849,-0.44097 z M 178.08424,65.745766 c -0.38294,-0.382933 -0.28769,-1.939727 0.30213,-4.938423 0.93919,-4.774936 0.23397,-4.359261 7.39582,-4.359261 5.31436,0 6.22253,0.07891 6.40583,0.556585 0.11747,0.306122 -0.16532,2.40956 -0.62843,4.674305 l -0.84202,4.117721 -6.19514,0.09606 c -3.40732,0.05283 -6.30451,-0.0133 -6.43819,-0.146992 z m 11.82877,-4.182406 c 0.33429,-1.552222 0.53799,-3.02066 0.45267,-3.263195 -0.11335,-0.322199 -1.39,-0.440972 -4.7399,-0.440972 -4.01,0 -4.62468,0.0774 -4.9031,0.617361 -0.49771,0.965257 -1.21562,5.288644 -0.94966,5.718983 0.15877,0.256893 1.79739,0.353586 4.88555,0.28829 l 4.64665,-0.09825 z"
       id="path6057"
       inkscape:connector-curvature="0"
       sodipodi:nodetypes="cccsccccccscssccccscscscscsccsscssssccccssssccsssccscccscscccccssccsscccccccscccccsscsscsccscccsccccsccsscccscscscsccsccscccccccccccccccccccccccccssccscssccssccssssssccccsscsssssscccscscccscccccccssssscscscccccccccccccccscssccssscccccsccsccccssccccccccscccccscccsccccccccccccsscccscccscccccccccccssccccssscsscccsccsccccccscccsccscccsssccsccccccssscccssscsscccsccsccccscscccsccscccssscccccccsccccccscccccccccccsccccsssscccsccccscccsccccscccccsscccsccscccsscscsccccsccscc" />
  </g>
</svg>
